<svg width="287" height="74" viewBox="0 0 287 74" fill="none" xmlns="http://www.w3.org/2000/svg">
<rect width="287" height="74" fill="white"/>
<path fill-rule="evenodd" clip-rule="evenodd" d="M23.1857 15.329C25.8042 11.7878 28.6992 9 32.4013 9C39.3905 9 45.1468 17.8967 45.1496 28.4893C45.1496 34.9509 42.3674 39 37.3702 39C33.0164 39 30.6123 36.5564 26.298 29.3386L24.4159 26.1699L24.083 25.614C23.5922 24.7845 23.0937 23.9596 22.5875 23.1394L19.2636 29.0085C14.5429 37.2619 11.8849 39 8.19414 39C3.06434 39 0 35.0073 0 28.6755C0 18.5598 5.62924 9 12.974 9C13.8742 9 14.7376 9.11005 15.5813 9.34424C16.456 9.58691 17.3053 9.96501 18.1575 10.4927C19.7856 11.5056 21.4137 13.0745 23.1857 15.329ZM27.4633 21.6044C26.7523 20.4475 26.0694 19.3837 25.412 18.4074L25.395 18.3849C27.7794 14.7026 29.7489 12.8713 32.0881 12.8713C36.9498 12.8713 40.8409 20.0299 40.8409 28.8222C40.8409 32.1744 39.7404 34.1185 37.469 34.1185C35.2878 34.1185 34.2466 32.6795 30.1044 26.0203L27.4633 21.6044ZM13.6738 13.9549C15.7195 14.237 17.5818 15.7438 20.2765 19.601C18.7217 21.9819 17.1838 24.3738 15.6631 26.7765C11.8341 32.7754 10.5107 34.1213 8.38037 34.1213C6.18793 34.1213 4.88149 32.197 4.88149 28.7602C4.88149 21.4182 8.54402 13.9069 12.912 13.9069C13.1687 13.9069 13.4227 13.921 13.6738 13.9549Z" fill="url(#paint0_linear_30_1827)"/>
<path d="M78.56 12.664V35H74.08V20.472L68.096 35H64.704L58.688 20.472V35H54.208V12.664H59.296L66.4 29.272L73.504 12.664H78.56ZM99.4693 25.752C99.4693 26.392 99.4266 26.968 99.3413 27.48H86.3813C86.4879 28.76 86.9359 29.7627 87.7253 30.488C88.5146 31.2133 89.4853 31.576 90.6373 31.576C92.3013 31.576 93.4853 30.8613 94.1893 29.432H99.0213C98.5093 31.1387 97.5279 32.5467 96.0773 33.656C94.6266 34.744 92.8453 35.288 90.7333 35.288C89.0266 35.288 87.4906 34.9147 86.1253 34.168C84.7813 33.4 83.7253 32.3227 82.9573 30.936C82.2106 29.5493 81.8372 27.9493 81.8372 26.136C81.8372 24.3013 82.2106 22.6907 82.9573 21.304C83.7039 19.9173 84.7493 18.8507 86.0933 18.104C87.4373 17.3573 88.9839 16.984 90.7333 16.984C92.4186 16.984 93.9226 17.3467 95.2453 18.072C96.5893 18.7973 97.6239 19.832 98.3493 21.176C99.0959 22.4987 99.4693 24.024 99.4693 25.752ZM94.8293 24.472C94.8079 23.32 94.3919 22.4027 93.5813 21.72C92.7706 21.016 91.7786 20.664 90.6053 20.664C89.4959 20.664 88.5573 21.0053 87.7893 21.688C87.0426 22.3493 86.5839 23.2773 86.4133 24.472H94.8293ZM107.955 20.952V29.528C107.955 30.1253 108.094 30.5627 108.371 30.84C108.67 31.096 109.161 31.224 109.843 31.224H111.923V35H109.107C105.331 35 103.443 33.1653 103.443 29.496V20.952H101.331V17.272H103.443V12.888H107.955V17.272H111.923V20.952H107.955ZM113.993 26.072C113.993 24.28 114.345 22.6907 115.049 21.304C115.775 19.9173 116.746 18.8507 117.962 18.104C119.199 17.3573 120.575 16.984 122.09 16.984C123.412 16.984 124.564 17.2507 125.546 17.784C126.548 18.3173 127.348 18.9893 127.946 19.8V17.272H132.458V35H127.946V32.408C127.37 33.24 126.57 33.9333 125.546 34.488C124.543 35.0213 123.38 35.288 122.058 35.288C120.564 35.288 119.199 34.904 117.962 34.136C116.746 33.368 115.775 32.2907 115.049 30.904C114.345 29.496 113.993 27.8853 113.993 26.072ZM127.946 26.136C127.946 25.048 127.732 24.12 127.306 23.352C126.879 22.5627 126.303 21.9653 125.578 21.56C124.852 21.1333 124.074 20.92 123.242 20.92C122.41 20.92 121.642 21.1227 120.938 21.528C120.234 21.9333 119.658 22.5307 119.21 23.32C118.783 24.088 118.57 25.0053 118.57 26.072C118.57 27.1387 118.783 28.0773 119.21 28.888C119.658 29.6773 120.234 30.2853 120.938 30.712C121.663 31.1387 122.431 31.352 123.242 31.352C124.074 31.352 124.852 31.1493 125.578 30.744C126.303 30.3173 126.879 29.72 127.306 28.952C127.732 28.1627 127.946 27.224 127.946 26.136Z" fill="black"/>
<path d="M66.88 52.544C68.1387 52.7787 69.1733 53.408 69.984 54.432C70.7947 55.456 71.2 56.6293 71.2 57.952C71.2 59.1467 70.9013 60.2027 70.304 61.12C69.728 62.016 68.8853 62.72 67.776 63.232C66.6667 63.744 65.3547 64 63.84 64H54.208V41.664H63.424C64.9387 41.664 66.24 41.9093 67.328 42.4C68.4373 42.8907 69.2693 43.5733 69.824 44.448C70.4 45.3227 70.688 46.3147 70.688 47.424C70.688 48.7253 70.336 49.8133 69.632 50.688C68.9493 51.5627 68.032 52.1813 66.88 52.544ZM58.688 50.88H62.784C63.8507 50.88 64.672 50.6453 65.248 50.176C65.824 49.6853 66.112 48.992 66.112 48.096C66.112 47.2 65.824 46.5067 65.248 46.016C64.672 45.5253 63.8507 45.28 62.784 45.28H58.688V50.88ZM63.2 60.352C64.288 60.352 65.1307 60.096 65.728 59.584C66.3467 59.072 66.656 58.3467 66.656 57.408C66.656 56.448 66.336 55.7013 65.696 55.168C65.056 54.6133 64.192 54.336 63.104 54.336H58.688V60.352H63.2ZM91.5065 46.272V64H86.9945V61.76C86.4185 62.528 85.6612 63.136 84.7225 63.584C83.8052 64.0107 82.8025 64.224 81.7145 64.224C80.3278 64.224 79.1012 63.936 78.0345 63.36C76.9678 62.7627 76.1252 61.8987 75.5065 60.768C74.9092 59.616 74.6105 58.2507 74.6105 56.672V46.272H79.0905V56.032C79.0905 57.44 79.4425 58.528 80.1465 59.296C80.8505 60.0427 81.8105 60.416 83.0265 60.416C84.2638 60.416 85.2345 60.0427 85.9385 59.296C86.6425 58.528 86.9945 57.44 86.9945 56.032V46.272H91.5065ZM102.711 64.288C101.26 64.288 99.9588 64.032 98.8068 63.52C97.6548 62.9867 96.7374 62.272 96.0548 61.376C95.3934 60.48 95.0308 59.488 94.9668 58.4H99.4788C99.5641 59.0827 99.8948 59.648 100.471 60.096C101.068 60.544 101.804 60.768 102.679 60.768C103.532 60.768 104.193 60.5973 104.663 60.256C105.153 59.9147 105.399 59.4773 105.399 58.944C105.399 58.368 105.1 57.9413 104.503 57.664C103.927 57.3653 102.999 57.0453 101.719 56.704C100.396 56.384 99.3081 56.0533 98.4548 55.712C97.6228 55.3707 96.8974 54.848 96.2788 54.144C95.6814 53.44 95.3828 52.4907 95.3828 51.296C95.3828 50.3147 95.6601 49.4187 96.2148 48.608C96.7908 47.7973 97.6014 47.1573 98.6468 46.688C99.7134 46.2187 100.961 45.984 102.391 45.984C104.503 45.984 106.188 46.5173 107.447 47.584C108.705 48.6293 109.399 50.048 109.527 51.84H105.239C105.175 51.136 104.876 50.5813 104.343 50.176C103.831 49.7493 103.137 49.536 102.263 49.536C101.452 49.536 100.823 49.6853 100.375 49.984C99.9481 50.2827 99.7348 50.6987 99.7348 51.232C99.7348 51.8293 100.033 52.288 100.631 52.608C101.228 52.9067 102.156 53.216 103.415 53.536C104.695 53.856 105.751 54.1867 106.583 54.528C107.415 54.8693 108.129 55.4027 108.727 56.128C109.345 56.832 109.665 57.7707 109.687 58.944C109.687 59.968 109.399 60.8853 108.823 61.696C108.268 62.5067 107.457 63.1467 106.391 63.616C105.345 64.064 104.119 64.288 102.711 64.288ZM115.636 44.16C114.847 44.16 114.186 43.9147 113.652 43.424C113.14 42.912 112.884 42.2827 112.884 41.536C112.884 40.7893 113.14 40.1707 113.652 39.68C114.186 39.168 114.847 38.912 115.636 38.912C116.426 38.912 117.076 39.168 117.588 39.68C118.122 40.1707 118.388 40.7893 118.388 41.536C118.388 42.2827 118.122 42.912 117.588 43.424C117.076 43.9147 116.426 44.16 115.636 44.16ZM117.844 46.272V64H113.364V46.272H117.844ZM132.095 46.016C134.207 46.016 135.913 46.688 137.215 48.032C138.516 49.3547 139.167 51.2107 139.167 53.6V64H134.687V54.208C134.687 52.8 134.335 51.7227 133.631 50.976C132.927 50.208 131.967 49.824 130.751 49.824C129.513 49.824 128.532 50.208 127.807 50.976C127.103 51.7227 126.751 52.8 126.751 54.208V64H122.271V46.272H126.751V48.48C127.348 47.712 128.105 47.1147 129.023 46.688C129.961 46.24 130.985 46.016 132.095 46.016ZM159.907 54.752C159.907 55.392 159.864 55.968 159.779 56.48H146.819C146.925 57.76 147.373 58.7627 148.163 59.488C148.952 60.2133 149.923 60.576 151.075 60.576C152.739 60.576 153.923 59.8613 154.627 58.432H159.459C158.947 60.1387 157.965 61.5467 156.515 62.656C155.064 63.744 153.283 64.288 151.171 64.288C149.464 64.288 147.928 63.9147 146.563 63.168C145.219 62.4 144.163 61.3227 143.395 59.936C142.648 58.5493 142.275 56.9493 142.275 55.136C142.275 53.3013 142.648 51.6907 143.395 50.304C144.141 48.9173 145.187 47.8507 146.531 47.104C147.875 46.3573 149.421 45.984 151.171 45.984C152.856 45.984 154.36 46.3467 155.683 47.072C157.027 47.7973 158.061 48.832 158.787 50.176C159.533 51.4987 159.907 53.024 159.907 54.752ZM155.267 53.472C155.245 52.32 154.829 51.4027 154.019 50.72C153.208 50.016 152.216 49.664 151.043 49.664C149.933 49.664 148.995 50.0053 148.227 50.688C147.48 51.3493 147.021 52.2773 146.851 53.472H155.267ZM169.961 64.288C168.51 64.288 167.209 64.032 166.057 63.52C164.905 62.9867 163.987 62.272 163.305 61.376C162.643 60.48 162.281 59.488 162.217 58.4H166.729C166.814 59.0827 167.145 59.648 167.721 60.096C168.318 60.544 169.054 60.768 169.929 60.768C170.782 60.768 171.443 60.5973 171.913 60.256C172.403 59.9147 172.649 59.4773 172.649 58.944C172.649 58.368 172.35 57.9413 171.753 57.664C171.177 57.3653 170.249 57.0453 168.969 56.704C167.646 56.384 166.558 56.0533 165.705 55.712C164.873 55.3707 164.147 54.848 163.529 54.144C162.931 53.44 162.633 52.4907 162.633 51.296C162.633 50.3147 162.91 49.4187 163.465 48.608C164.041 47.7973 164.851 47.1573 165.897 46.688C166.963 46.2187 168.211 45.984 169.641 45.984C171.753 45.984 173.438 46.5173 174.697 47.584C175.955 48.6293 176.649 50.048 176.777 51.84H172.489C172.425 51.136 172.126 50.5813 171.593 50.176C171.081 49.7493 170.387 49.536 169.513 49.536C168.702 49.536 168.073 49.6853 167.625 49.984C167.198 50.2827 166.985 50.6987 166.985 51.232C166.985 51.8293 167.283 52.288 167.881 52.608C168.478 52.9067 169.406 53.216 170.665 53.536C171.945 53.856 173.001 54.1867 173.833 54.528C174.665 54.8693 175.379 55.4027 175.977 56.128C176.595 56.832 176.915 57.7707 176.937 58.944C176.937 59.968 176.649 60.8853 176.073 61.696C175.518 62.5067 174.707 63.1467 173.641 63.616C172.595 64.064 171.369 64.288 169.961 64.288ZM187.398 64.288C185.948 64.288 184.646 64.032 183.494 63.52C182.342 62.9867 181.425 62.272 180.742 61.376C180.081 60.48 179.718 59.488 179.654 58.4H184.166C184.252 59.0827 184.582 59.648 185.158 60.096C185.756 60.544 186.492 60.768 187.366 60.768C188.22 60.768 188.881 60.5973 189.35 60.256C189.841 59.9147 190.086 59.4773 190.086 58.944C190.086 58.368 189.788 57.9413 189.19 57.664C188.614 57.3653 187.686 57.0453 186.406 56.704C185.084 56.384 183.996 56.0533 183.142 55.712C182.31 55.3707 181.585 54.848 180.966 54.144C180.369 53.44 180.07 52.4907 180.07 51.296C180.07 50.3147 180.348 49.4187 180.902 48.608C181.478 47.7973 182.289 47.1573 183.334 46.688C184.401 46.2187 185.649 45.984 187.078 45.984C189.19 45.984 190.876 46.5173 192.134 47.584C193.393 48.6293 194.086 50.048 194.214 51.84H189.926C189.862 51.136 189.564 50.5813 189.03 50.176C188.518 49.7493 187.825 49.536 186.95 49.536C186.14 49.536 185.51 49.6853 185.062 49.984C184.636 50.2827 184.422 50.6987 184.422 51.232C184.422 51.8293 184.721 52.288 185.318 52.608C185.916 52.9067 186.844 53.216 188.102 53.536C189.382 53.856 190.438 54.1867 191.27 54.528C192.102 54.8693 192.817 55.4027 193.414 56.128C194.033 56.832 194.353 57.7707 194.374 58.944C194.374 59.968 194.086 60.8853 193.51 61.696C192.956 62.5067 192.145 63.1467 191.078 63.616C190.033 64.064 188.806 64.288 187.398 64.288ZM213.389 64.224C211.831 64.224 210.423 63.9573 209.165 63.424C207.927 62.8907 206.946 62.1227 206.221 61.12C205.495 60.1173 205.122 58.9333 205.101 57.568H209.901C209.965 58.4853 210.285 59.2107 210.861 59.744C211.458 60.2773 212.269 60.544 213.293 60.544C214.338 60.544 215.159 60.2987 215.757 59.808C216.354 59.296 216.653 58.6347 216.653 57.824C216.653 57.1627 216.45 56.6187 216.045 56.192C215.639 55.7653 215.127 55.4347 214.509 55.2C213.911 54.944 213.079 54.6667 212.013 54.368C210.562 53.9413 209.378 53.5253 208.461 53.12C207.565 52.6933 206.786 52.064 206.125 51.232C205.485 50.3787 205.165 49.248 205.165 47.84C205.165 46.5173 205.495 45.3653 206.157 44.384C206.818 43.4027 207.746 42.656 208.941 42.144C210.135 41.6107 211.501 41.344 213.037 41.344C215.341 41.344 217.207 41.9093 218.637 43.04C220.087 44.1493 220.887 45.7067 221.037 47.712H216.109C216.066 46.944 215.735 46.3147 215.117 45.824C214.519 45.312 213.719 45.056 212.717 45.056C211.842 45.056 211.138 45.28 210.605 45.728C210.093 46.176 209.837 46.8267 209.837 47.68C209.837 48.2773 210.029 48.7787 210.413 49.184C210.818 49.568 211.309 49.888 211.885 50.144C212.482 50.3787 213.314 50.656 214.381 50.976C215.831 51.4027 217.015 51.8293 217.933 52.256C218.85 52.6827 219.639 53.3227 220.301 54.176C220.962 55.0293 221.293 56.1493 221.293 57.536C221.293 58.7307 220.983 59.84 220.365 60.864C219.746 61.888 218.839 62.7093 217.645 63.328C216.45 63.9253 215.031 64.224 213.389 64.224ZM241.913 46.272V64H237.401V61.76C236.825 62.528 236.067 63.136 235.129 63.584C234.211 64.0107 233.209 64.224 232.121 64.224C230.734 64.224 229.507 63.936 228.441 63.36C227.374 62.7627 226.531 61.8987 225.913 60.768C225.315 59.616 225.017 58.2507 225.017 56.672V46.272H229.497V56.032C229.497 57.44 229.849 58.528 230.553 59.296C231.257 60.0427 232.217 60.416 233.433 60.416C234.67 60.416 235.641 60.0427 236.345 59.296C237.049 58.528 237.401 57.44 237.401 56.032V46.272H241.913ZM248.605 44.16C247.816 44.16 247.154 43.9147 246.621 43.424C246.109 42.912 245.853 42.2827 245.853 41.536C245.853 40.7893 246.109 40.1707 246.621 39.68C247.154 39.168 247.816 38.912 248.605 38.912C249.394 38.912 250.045 39.168 250.557 39.68C251.09 40.1707 251.357 40.7893 251.357 41.536C251.357 42.2827 251.09 42.912 250.557 43.424C250.045 43.9147 249.394 44.16 248.605 44.16ZM250.813 46.272V64H246.333V46.272H250.813ZM260.455 49.952V58.528C260.455 59.1253 260.594 59.5627 260.871 59.84C261.17 60.096 261.661 60.224 262.343 60.224H264.423V64H261.607C257.831 64 255.943 62.1653 255.943 58.496V49.952H253.831V46.272H255.943V41.888H260.455V46.272H264.423V49.952H260.455ZM284.126 54.752C284.126 55.392 284.083 55.968 283.998 56.48H271.038C271.144 57.76 271.592 58.7627 272.382 59.488C273.171 60.2133 274.142 60.576 275.294 60.576C276.958 60.576 278.142 59.8613 278.846 58.432H283.678C283.166 60.1387 282.184 61.5467 280.734 62.656C279.283 63.744 277.502 64.288 275.39 64.288C273.683 64.288 272.147 63.9147 270.782 63.168C269.438 62.4 268.382 61.3227 267.614 59.936C266.867 58.5493 266.493 56.9493 266.493 55.136C266.493 53.3013 266.867 51.6907 267.614 50.304C268.36 48.9173 269.406 47.8507 270.75 47.104C272.094 46.3573 273.64 45.984 275.39 45.984C277.075 45.984 278.579 46.3467 279.902 47.072C281.246 47.7973 282.28 48.832 283.006 50.176C283.752 51.4987 284.126 53.024 284.126 54.752ZM279.486 53.472C279.464 52.32 279.048 51.4027 278.238 50.72C277.427 50.016 276.435 49.664 275.262 49.664C274.152 49.664 273.214 50.0053 272.446 50.688C271.699 51.3493 271.24 52.2773 271.07 53.472H279.486Z" fill="black"/>
<defs>
<linearGradient id="paint0_linear_30_1827" x1="45.1467" y1="38.895" x2="-1.29117e-06" y2="38.895" gradientUnits="userSpaceOnUse">
<stop stop-color="#378EFF"/>
<stop offset="1" stop-color="#006FFF"/>
</linearGradient>
</defs>
</svg>
